# xmcd
# Copyright (C) 1995-1998 Ti Kan
#
# Track frame offsets:
#       150
#       12043
#       29614
#       44409
#       64143
#       83541
#       96489
#       111759
#       134984
#       150113
#
# Disc length: 2183 seconds
#
# Revision: 0
# Processed by: cddbd v1.4PL0 Copyright (c) Steve Scherf et al.
# Submitted via: CD-Transfer v1.0
#
DISCID=7d08850a
DTITLE=Bettina Schelker - Klischee
DYEAR=01
DGENRE=
TTITLE0=Meinst Du Mich?
TTITLE1=Klischee
TTITLE2=Anchored On Your Skin
TTITLE3=Irgendwann
TTITLE4=Nobody Elses Girl
TTITLE5=Liebeslied
TTITLE6=Wo?
TTITLE7=Füür
TTITLE8=Angeline
TTITLE9=Kisses and Television Tongues
EXTD=
EXTT0=
EXTT1=
EXTT2=
EXTT3=
EXTT4=
EXTT5=
EXTT6=
EXTT7=
EXTT8=
EXTT9=
PLAYORDER=
